<svg width="201" height="13" viewBox="0 0 201 13" fill="none" xmlns="http://www.w3.org/2000/svg">
<path d="M4.8457 2.20117C3.9043 2.20117 3.16016 2.51562 2.61328 3.14453C2.07031 3.76953 1.79883 4.62695 1.79883 5.7168C1.79883 6.83789 2.06055 7.70508 2.58398 8.31836C3.11133 8.92773 3.86133 9.23242 4.83398 9.23242C5.43164 9.23242 6.11328 9.125 6.87891 8.91016V9.7832C6.28516 10.0059 5.55273 10.1172 4.68164 10.1172C3.41992 10.1172 2.44531 9.73438 1.75781 8.96875C1.07422 8.20312 0.732422 7.11523 0.732422 5.70508C0.732422 4.82227 0.896484 4.04883 1.22461 3.38477C1.55664 2.7207 2.0332 2.20898 2.6543 1.84961C3.2793 1.49023 4.01367 1.31055 4.85742 1.31055C5.75586 1.31055 6.54102 1.47461 7.21289 1.80273L6.79102 2.6582C6.14258 2.35352 5.49414 2.20117 4.8457 2.20117ZM14.1445 6.7832C14.1445 7.83008 13.8809 8.64844 13.3535 9.23828C12.8262 9.82422 12.0977 10.1172 11.168 10.1172C10.5938 10.1172 10.084 9.98242 9.63867 9.71289C9.19336 9.44336 8.84961 9.05664 8.60742 8.55273C8.36523 8.04883 8.24414 7.45898 8.24414 6.7832C8.24414 5.73633 8.50586 4.92188 9.0293 4.33984C9.55273 3.75391 10.2793 3.46094 11.209 3.46094C12.1074 3.46094 12.8203 3.75977 13.3477 4.35742C13.8789 4.95508 14.1445 5.76367 14.1445 6.7832ZM9.25195 6.7832C9.25195 7.60352 9.41602 8.22852 9.74414 8.6582C10.0723 9.08789 10.5547 9.30273 11.1914 9.30273C11.8281 9.30273 12.3105 9.08984 12.6387 8.66406C12.9707 8.23438 13.1367 7.60742 13.1367 6.7832C13.1367 5.9668 12.9707 5.34766 12.6387 4.92578C12.3105 4.5 11.8242 4.28711 11.1797 4.28711C10.543 4.28711 10.0625 4.49609 9.73828 4.91406C9.41406 5.33203 9.25195 5.95508 9.25195 6.7832ZM18.8438 10.1172C18.4258 10.1172 18.043 10.041 17.6953 9.88867C17.3516 9.73242 17.0625 9.49414 16.8281 9.17383H16.7578C16.8047 9.54883 16.8281 9.9043 16.8281 10.2402V12.8828H15.8555V3.57812H16.6465L16.7812 4.45703H16.8281C17.0781 4.10547 17.3691 3.85156 17.7012 3.69531C18.0332 3.53906 18.4141 3.46094 18.8438 3.46094C19.6953 3.46094 20.3516 3.75195 20.8125 4.33398C21.2773 4.91602 21.5098 5.73242 21.5098 6.7832C21.5098 7.83789 21.2734 8.6582 20.8008 9.24414C20.332 9.82617 19.6797 10.1172 18.8438 10.1172ZM18.7031 4.28711C18.0469 4.28711 17.5723 4.46875 17.2793 4.83203C16.9863 5.19531 16.8359 5.77344 16.8281 6.56641V6.7832C16.8281 7.68555 16.9785 8.33203 17.2793 8.72266C17.5801 9.10938 18.0625 9.30273 18.7266 9.30273C19.2812 9.30273 19.7148 9.07812 20.0273 8.62891C20.3438 8.17969 20.502 7.56055 20.502 6.77148C20.502 5.9707 20.3438 5.35742 20.0273 4.93164C19.7148 4.50195 19.2734 4.28711 18.7031 4.28711ZM22.1953 3.57812H23.2383L24.6445 7.24023C24.9531 8.07617 25.1445 8.67969 25.2188 9.05078H25.2656C25.3164 8.85156 25.4219 8.51172 25.582 8.03125C25.7461 7.54688 26.2773 6.0625 27.1758 3.57812H28.2188L25.459 10.8906C25.1855 11.6133 24.8652 12.125 24.498 12.4258C24.1348 12.7305 23.6875 12.8828 23.1562 12.8828C22.8594 12.8828 22.5664 12.8496 22.2773 12.7832V12.0039C22.4922 12.0508 22.7324 12.0742 22.998 12.0742C23.666 12.0742 24.1426 11.6992 24.4277 10.9492L24.7852 10.0352L22.1953 3.57812ZM32.1914 3.46094C32.4766 3.46094 32.7324 3.48438 32.959 3.53125L32.8242 4.43359C32.5586 4.375 32.3242 4.3457 32.1211 4.3457C31.6016 4.3457 31.1562 4.55664 30.7852 4.97852C30.418 5.40039 30.2344 5.92578 30.2344 6.55469V10H29.2617V3.57812H30.0645L30.1758 4.76758H30.2227C30.4609 4.34961 30.748 4.02734 31.084 3.80078C31.4199 3.57422 31.7891 3.46094 32.1914 3.46094ZM35.1328 10H34.1602V3.57812H35.1328V10ZM34.0781 1.83789C34.0781 1.61523 34.1328 1.45312 34.2422 1.35156C34.3516 1.24609 34.4883 1.19336 34.6523 1.19336C34.8086 1.19336 34.9434 1.24609 35.0566 1.35156C35.1699 1.45703 35.2266 1.61914 35.2266 1.83789C35.2266 2.05664 35.1699 2.2207 35.0566 2.33008C34.9434 2.43555 34.8086 2.48828 34.6523 2.48828C34.4883 2.48828 34.3516 2.43555 34.2422 2.33008C34.1328 2.2207 34.0781 2.05664 34.0781 1.83789ZM42.4512 3.57812V4.19336L41.2617 4.33398C41.3711 4.4707 41.4688 4.65039 41.5547 4.87305C41.6406 5.0918 41.6836 5.33984 41.6836 5.61719C41.6836 6.24609 41.4688 6.74805 41.0391 7.12305C40.6094 7.49805 40.0195 7.68555 39.2695 7.68555C39.0781 7.68555 38.8984 7.66992 38.7305 7.63867C38.3164 7.85742 38.1094 8.13281 38.1094 8.46484C38.1094 8.64062 38.1816 8.77148 38.3262 8.85742C38.4707 8.93945 38.7188 8.98047 39.0703 8.98047H40.207C40.9023 8.98047 41.4355 9.12695 41.8066 9.41992C42.1816 9.71289 42.3691 10.1387 42.3691 10.6973C42.3691 11.4082 42.084 11.9492 41.5137 12.3203C40.9434 12.6953 40.1113 12.8828 39.0176 12.8828C38.1777 12.8828 37.5293 12.7266 37.0723 12.4141C36.6191 12.1016 36.3926 11.6602 36.3926 11.0898C36.3926 10.6992 36.5176 10.3613 36.7676 10.0762C37.0176 9.79102 37.3691 9.59766 37.8223 9.49609C37.6582 9.42188 37.5195 9.30664 37.4062 9.15039C37.2969 8.99414 37.2422 8.8125 37.2422 8.60547C37.2422 8.37109 37.3047 8.16602 37.4297 7.99023C37.5547 7.81445 37.752 7.64453 38.0215 7.48047C37.6895 7.34375 37.418 7.11133 37.207 6.7832C37 6.45508 36.8965 6.08008 36.8965 5.6582C36.8965 4.95508 37.1074 4.41406 37.5293 4.03516C37.9512 3.65234 38.5488 3.46094 39.3223 3.46094C39.6582 3.46094 39.9609 3.5 40.2305 3.57812H42.4512ZM37.3301 11.0781C37.3301 11.4258 37.4766 11.6895 37.7695 11.8691C38.0625 12.0488 38.4824 12.1387 39.0293 12.1387C39.8457 12.1387 40.4492 12.0156 40.8398 11.7695C41.2344 11.5273 41.4316 11.1973 41.4316 10.7793C41.4316 10.4316 41.3242 10.1895 41.1094 10.0527C40.8945 9.91992 40.4902 9.85352 39.8965 9.85352H38.7305C38.2891 9.85352 37.9453 9.95898 37.6992 10.1699C37.4531 10.3809 37.3301 10.6836 37.3301 11.0781ZM37.8574 5.63477C37.8574 6.08398 37.9844 6.42383 38.2383 6.6543C38.4922 6.88477 38.8457 7 39.2988 7C40.248 7 40.7227 6.53906 40.7227 5.61719C40.7227 4.65234 40.2422 4.16992 39.2812 4.16992C38.8242 4.16992 38.4727 4.29297 38.2266 4.53906C37.9805 4.78516 37.8574 5.15039 37.8574 5.63477ZM48.1641 10V5.8457C48.1641 5.32227 48.0449 4.93164 47.8066 4.67383C47.5684 4.41602 47.1953 4.28711 46.6875 4.28711C46.0117 4.28711 45.5176 4.4707 45.2051 4.83789C44.8965 5.20508 44.7422 5.80664 44.7422 6.64258V10H43.7695V0.882812H44.7422V3.64258C44.7422 3.97461 44.7266 4.25 44.6953 4.46875H44.7539C44.9453 4.16016 45.2168 3.91797 45.5684 3.74219C45.9238 3.5625 46.3281 3.47266 46.7812 3.47266C47.5664 3.47266 48.1543 3.66016 48.5449 4.03516C48.9395 4.40625 49.1367 4.99805 49.1367 5.81055V10H48.1641ZM53.2148 9.31445C53.3867 9.31445 53.5527 9.30273 53.7129 9.2793C53.873 9.25195 54 9.22461 54.0938 9.19727V9.94141C53.9883 9.99219 53.832 10.0332 53.625 10.0645C53.4219 10.0996 53.2383 10.1172 53.0742 10.1172C51.832 10.1172 51.2109 9.46289 51.2109 8.1543V4.33398H50.291V3.86523L51.2109 3.46094L51.6211 2.08984H52.1836V3.57812H54.0469V4.33398H52.1836V8.11328C52.1836 8.5 52.2754 8.79688 52.459 9.00391C52.6426 9.21094 52.8945 9.31445 53.2148 9.31445ZM62.7012 3.79492C62.2129 3.79492 61.8359 3.96484 61.5703 4.30469C61.3086 4.64453 61.1777 5.11523 61.1777 5.7168C61.1777 6.37305 61.3008 6.85938 61.5469 7.17578C61.7969 7.49219 62.1777 7.65039 62.6895 7.65039C63.0254 7.65039 63.4375 7.5625 63.9258 7.38672V8.11328C63.7383 8.19141 63.5449 8.25781 63.3457 8.3125C63.1504 8.36719 62.916 8.39453 62.6426 8.39453C61.8848 8.39453 61.3027 8.16016 60.8965 7.69141C60.4902 7.21875 60.2871 6.56055 60.2871 5.7168C60.2871 4.90039 60.502 4.25195 60.9316 3.77148C61.3652 3.29102 61.9551 3.05078 62.7012 3.05078C63.2012 3.05078 63.6816 3.16797 64.1426 3.40234L63.8027 4.09375C63.3809 3.89453 63.0137 3.79492 62.7012 3.79492ZM58.0547 5.7168C58.0547 4.93555 58.25 4.20312 58.6406 3.51953C59.0312 2.83594 59.5684 2.29688 60.252 1.90234C60.9355 1.50781 61.6719 1.31055 62.4609 1.31055C63.2422 1.31055 63.9746 1.50586 64.6582 1.89648C65.3418 2.28711 65.8809 2.82422 66.2754 3.50781C66.6699 4.19141 66.8672 4.92773 66.8672 5.7168C66.8672 6.48633 66.6777 7.20898 66.2988 7.88477C65.9199 8.56055 65.3887 9.10156 64.7051 9.50781C64.0215 9.91406 63.2734 10.1172 62.4609 10.1172C61.6523 10.1172 60.9062 9.91602 60.2227 9.51367C59.5391 9.10742 59.0059 8.56641 58.623 7.89062C58.2441 7.21484 58.0547 6.49023 58.0547 5.7168ZM58.6699 5.7168C58.6699 6.39258 58.8398 7.02539 59.1797 7.61523C59.5195 8.20117 59.9824 8.66406 60.5684 9.00391C61.1582 9.33984 61.7891 9.50781 62.4609 9.50781C63.1406 9.50781 63.7715 9.33789 64.3535 8.99805C64.9355 8.6582 65.3965 8.19922 65.7363 7.62109C66.0801 7.03906 66.252 6.4043 66.252 5.7168C66.252 5.03711 66.082 4.40625 65.7422 3.82422C65.4023 3.24219 64.9414 2.78125 64.3594 2.44141C63.7812 2.09766 63.1484 1.92578 62.4609 1.92578C61.7812 1.92578 61.1504 2.0957 60.5684 2.43555C59.9863 2.77539 59.5234 3.23633 59.1797 3.81836C58.8398 4.39648 58.6699 5.0293 58.6699 5.7168ZM73.6699 10H68.0391V9.16211L70.2949 6.89453C70.9824 6.19922 71.4355 5.70312 71.6543 5.40625C71.873 5.10938 72.0371 4.82031 72.1465 4.53906C72.2559 4.25781 72.3105 3.95508 72.3105 3.63086C72.3105 3.17383 72.1719 2.8125 71.8945 2.54688C71.6172 2.27734 71.2324 2.14258 70.7402 2.14258C70.3848 2.14258 70.0469 2.20117 69.7266 2.31836C69.4102 2.43555 69.0566 2.64844 68.666 2.95703L68.1504 2.29492C68.9395 1.63867 69.7988 1.31055 70.7285 1.31055C71.5332 1.31055 72.1641 1.51758 72.6211 1.93164C73.0781 2.3418 73.3066 2.89453 73.3066 3.58984C73.3066 4.13281 73.1543 4.66992 72.8496 5.20117C72.5449 5.73242 71.9746 6.4043 71.1387 7.2168L69.2637 9.05078V9.09766H73.6699V10ZM80.584 5.70508C80.584 7.18555 80.3496 8.29102 79.8809 9.02148C79.416 9.75195 78.7031 10.1172 77.7422 10.1172C76.8203 10.1172 76.1191 9.74414 75.6387 8.99805C75.1582 8.24805 74.918 7.15039 74.918 5.70508C74.918 4.21289 75.1504 3.10547 75.6152 2.38281C76.0801 1.66016 76.7891 1.29883 77.7422 1.29883C78.6719 1.29883 79.377 1.67578 79.8574 2.42969C80.3418 3.18359 80.584 4.27539 80.584 5.70508ZM75.9023 5.70508C75.9023 6.95117 76.0488 7.85938 76.3418 8.42969C76.6348 8.99609 77.1016 9.2793 77.7422 9.2793C78.3906 9.2793 78.8594 8.99219 79.1484 8.41797C79.4414 7.83984 79.5879 6.93555 79.5879 5.70508C79.5879 4.47461 79.4414 3.57422 79.1484 3.00391C78.8594 2.42969 78.3906 2.14258 77.7422 2.14258C77.1016 2.14258 76.6348 2.42578 76.3418 2.99219C76.0488 3.55469 75.9023 4.45898 75.9023 5.70508ZM85.377 10H84.4277V3.89453C84.4277 3.38672 84.4434 2.90625 84.4746 2.45312C84.3926 2.53516 84.3008 2.62109 84.1992 2.71094C84.0977 2.80078 83.6328 3.18164 82.8047 3.85352L82.2891 3.18555L84.5566 1.43359H85.377V10ZM89.7246 10L93.2754 2.33008H88.6055V1.43359H94.3066V2.21289L90.8027 10H89.7246ZM95.8125 9.37891C95.8125 9.11719 95.8711 8.91992 95.9883 8.78711C96.1094 8.65039 96.2812 8.58203 96.5039 8.58203C96.7305 8.58203 96.9062 8.65039 97.0312 8.78711C97.1602 8.91992 97.2246 9.11719 97.2246 9.37891C97.2246 9.63281 97.1602 9.82812 97.0312 9.96484C96.9023 10.1016 96.7266 10.1699 96.5039 10.1699C96.3047 10.1699 96.1387 10.1094 96.0059 9.98828C95.877 9.86328 95.8125 9.66016 95.8125 9.37891ZM107.801 10L106.734 7.27539H103.301L102.246 10H101.238L104.625 1.39844H105.463L108.832 10H107.801ZM106.424 6.37891L105.428 3.72461C105.299 3.38867 105.166 2.97656 105.029 2.48828C104.943 2.86328 104.82 3.27539 104.66 3.72461L103.652 6.37891H106.424ZM110.836 10H109.863V0.882812H110.836V10ZM113.871 10H112.898V0.882812H113.871V10ZM120.193 6.4375V10H119.197V1.43359H121.547C122.598 1.43359 123.373 1.63477 123.873 2.03711C124.377 2.43945 124.629 3.04492 124.629 3.85352C124.629 4.98633 124.055 5.75195 122.906 6.15039L125.232 10H124.055L121.98 6.4375H120.193ZM120.193 5.58203H121.559C122.262 5.58203 122.777 5.44336 123.105 5.16602C123.434 4.88477 123.598 4.46484 123.598 3.90625C123.598 3.33984 123.43 2.93164 123.094 2.68164C122.762 2.43164 122.227 2.30664 121.488 2.30664H120.193V5.58203ZM127.441 10H126.469V3.57812H127.441V10ZM126.387 1.83789C126.387 1.61523 126.441 1.45312 126.551 1.35156C126.66 1.24609 126.797 1.19336 126.961 1.19336C127.117 1.19336 127.252 1.24609 127.365 1.35156C127.479 1.45703 127.535 1.61914 127.535 1.83789C127.535 2.05664 127.479 2.2207 127.365 2.33008C127.252 2.43555 127.117 2.48828 126.961 2.48828C126.797 2.48828 126.66 2.43555 126.551 2.33008C126.441 2.2207 126.387 2.05664 126.387 1.83789ZM134.76 3.57812V4.19336L133.57 4.33398C133.68 4.4707 133.777 4.65039 133.863 4.87305C133.949 5.0918 133.992 5.33984 133.992 5.61719C133.992 6.24609 133.777 6.74805 133.348 7.12305C132.918 7.49805 132.328 7.68555 131.578 7.68555C131.387 7.68555 131.207 7.66992 131.039 7.63867C130.625 7.85742 130.418 8.13281 130.418 8.46484C130.418 8.64062 130.49 8.77148 130.635 8.85742C130.779 8.93945 131.027 8.98047 131.379 8.98047H132.516C133.211 8.98047 133.744 9.12695 134.115 9.41992C134.49 9.71289 134.678 10.1387 134.678 10.6973C134.678 11.4082 134.393 11.9492 133.822 12.3203C133.252 12.6953 132.42 12.8828 131.326 12.8828C130.486 12.8828 129.838 12.7266 129.381 12.4141C128.928 12.1016 128.701 11.6602 128.701 11.0898C128.701 10.6992 128.826 10.3613 129.076 10.0762C129.326 9.79102 129.678 9.59766 130.131 9.49609C129.967 9.42188 129.828 9.30664 129.715 9.15039C129.605 8.99414 129.551 8.8125 129.551 8.60547C129.551 8.37109 129.613 8.16602 129.738 7.99023C129.863 7.81445 130.061 7.64453 130.33 7.48047C129.998 7.34375 129.727 7.11133 129.516 6.7832C129.309 6.45508 129.205 6.08008 129.205 5.6582C129.205 4.95508 129.416 4.41406 129.838 4.03516C130.26 3.65234 130.857 3.46094 131.631 3.46094C131.967 3.46094 132.27 3.5 132.539 3.57812H134.76ZM129.639 11.0781C129.639 11.4258 129.785 11.6895 130.078 11.8691C130.371 12.0488 130.791 12.1387 131.338 12.1387C132.154 12.1387 132.758 12.0156 133.148 11.7695C133.543 11.5273 133.74 11.1973 133.74 10.7793C133.74 10.4316 133.633 10.1895 133.418 10.0527C133.203 9.91992 132.799 9.85352 132.205 9.85352H131.039C130.598 9.85352 130.254 9.95898 130.008 10.1699C129.762 10.3809 129.639 10.6836 129.639 11.0781ZM130.166 5.63477C130.166 6.08398 130.293 6.42383 130.547 6.6543C130.801 6.88477 131.154 7 131.607 7C132.557 7 133.031 6.53906 133.031 5.61719C133.031 4.65234 132.551 4.16992 131.59 4.16992C131.133 4.16992 130.781 4.29297 130.535 4.53906C130.289 4.78516 130.166 5.15039 130.166 5.63477ZM140.473 10V5.8457C140.473 5.32227 140.354 4.93164 140.115 4.67383C139.877 4.41602 139.504 4.28711 138.996 4.28711C138.32 4.28711 137.826 4.4707 137.514 4.83789C137.205 5.20508 137.051 5.80664 137.051 6.64258V10H136.078V0.882812H137.051V3.64258C137.051 3.97461 137.035 4.25 137.004 4.46875H137.062C137.254 4.16016 137.525 3.91797 137.877 3.74219C138.232 3.5625 138.637 3.47266 139.09 3.47266C139.875 3.47266 140.463 3.66016 140.854 4.03516C141.248 4.40625 141.445 4.99805 141.445 5.81055V10H140.473ZM145.523 9.31445C145.695 9.31445 145.861 9.30273 146.021 9.2793C146.182 9.25195 146.309 9.22461 146.402 9.19727V9.94141C146.297 9.99219 146.141 10.0332 145.934 10.0645C145.73 10.0996 145.547 10.1172 145.383 10.1172C144.141 10.1172 143.52 9.46289 143.52 8.1543V4.33398H142.6V3.86523L143.52 3.46094L143.93 2.08984H144.492V3.57812H146.355V4.33398H144.492V8.11328C144.492 8.5 144.584 8.79688 144.768 9.00391C144.951 9.21094 145.203 9.31445 145.523 9.31445ZM151.951 6.4375V10H150.955V1.43359H153.305C154.355 1.43359 155.131 1.63477 155.631 2.03711C156.135 2.43945 156.387 3.04492 156.387 3.85352C156.387 4.98633 155.812 5.75195 154.664 6.15039L156.99 10H155.812L153.738 6.4375H151.951ZM151.951 5.58203H153.316C154.02 5.58203 154.535 5.44336 154.863 5.16602C155.191 4.88477 155.355 4.46484 155.355 3.90625C155.355 3.33984 155.188 2.93164 154.852 2.68164C154.52 2.43164 153.984 2.30664 153.246 2.30664H151.951V5.58203ZM160.939 10.1172C159.99 10.1172 159.24 9.82812 158.689 9.25C158.143 8.67188 157.869 7.86914 157.869 6.8418C157.869 5.80664 158.123 4.98438 158.631 4.375C159.143 3.76562 159.828 3.46094 160.688 3.46094C161.492 3.46094 162.129 3.72656 162.598 4.25781C163.066 4.78516 163.301 5.48242 163.301 6.34961V6.96484H158.877C158.896 7.71875 159.086 8.29102 159.445 8.68164C159.809 9.07227 160.318 9.26758 160.975 9.26758C161.666 9.26758 162.35 9.12305 163.025 8.83398V9.70117C162.682 9.84961 162.355 9.95508 162.047 10.0176C161.742 10.084 161.373 10.1172 160.939 10.1172ZM160.676 4.27539C160.16 4.27539 159.748 4.44336 159.439 4.7793C159.135 5.11523 158.955 5.58008 158.9 6.17383H162.258C162.258 5.56055 162.121 5.0918 161.848 4.76758C161.574 4.43945 161.184 4.27539 160.676 4.27539ZM169.107 8.24805C169.107 8.8457 168.885 9.30664 168.439 9.63086C167.994 9.95508 167.369 10.1172 166.564 10.1172C165.713 10.1172 165.049 9.98242 164.572 9.71289V8.81055C164.881 8.9668 165.211 9.08984 165.562 9.17969C165.918 9.26953 166.26 9.31445 166.588 9.31445C167.096 9.31445 167.486 9.23438 167.76 9.07422C168.033 8.91016 168.17 8.66211 168.17 8.33008C168.17 8.08008 168.061 7.86719 167.842 7.69141C167.627 7.51172 167.205 7.30078 166.576 7.05859C165.979 6.83594 165.553 6.64258 165.299 6.47852C165.049 6.31055 164.861 6.12109 164.736 5.91016C164.615 5.69922 164.555 5.44727 164.555 5.1543C164.555 4.63086 164.768 4.21875 165.193 3.91797C165.619 3.61328 166.203 3.46094 166.945 3.46094C167.637 3.46094 168.312 3.60156 168.973 3.88281L168.627 4.67383C167.982 4.4082 167.398 4.27539 166.875 4.27539C166.414 4.27539 166.066 4.34766 165.832 4.49219C165.598 4.63672 165.48 4.83594 165.48 5.08984C165.48 5.26172 165.523 5.4082 165.609 5.5293C165.699 5.65039 165.842 5.76562 166.037 5.875C166.232 5.98438 166.607 6.14258 167.162 6.34961C167.924 6.62695 168.438 6.90625 168.703 7.1875C168.973 7.46875 169.107 7.82227 169.107 8.24805ZM173.408 10.1172C172.459 10.1172 171.709 9.82812 171.158 9.25C170.611 8.67188 170.338 7.86914 170.338 6.8418C170.338 5.80664 170.592 4.98438 171.1 4.375C171.611 3.76562 172.297 3.46094 173.156 3.46094C173.961 3.46094 174.598 3.72656 175.066 4.25781C175.535 4.78516 175.77 5.48242 175.77 6.34961V6.96484H171.346C171.365 7.71875 171.555 8.29102 171.914 8.68164C172.277 9.07227 172.787 9.26758 173.443 9.26758C174.135 9.26758 174.818 9.12305 175.494 8.83398V9.70117C175.15 9.84961 174.824 9.95508 174.516 10.0176C174.211 10.084 173.842 10.1172 173.408 10.1172ZM173.145 4.27539C172.629 4.27539 172.217 4.44336 171.908 4.7793C171.604 5.11523 171.424 5.58008 171.369 6.17383H174.727C174.727 5.56055 174.59 5.0918 174.316 4.76758C174.043 4.43945 173.652 4.27539 173.145 4.27539ZM180.363 3.46094C180.648 3.46094 180.904 3.48438 181.131 3.53125L180.996 4.43359C180.73 4.375 180.496 4.3457 180.293 4.3457C179.773 4.3457 179.328 4.55664 178.957 4.97852C178.59 5.40039 178.406 5.92578 178.406 6.55469V10H177.434V3.57812H178.236L178.348 4.76758H178.395C178.633 4.34961 178.92 4.02734 179.256 3.80078C179.592 3.57422 179.961 3.46094 180.363 3.46094ZM183.738 10L181.301 3.57812H182.344L183.727 7.38672C184.039 8.27734 184.223 8.85547 184.277 9.12109H184.324C184.367 8.91406 184.502 8.48633 184.729 7.83789C184.959 7.18555 185.473 5.76562 186.27 3.57812H187.312L184.875 10H183.738ZM191.057 10.1172C190.107 10.1172 189.357 9.82812 188.807 9.25C188.26 8.67188 187.986 7.86914 187.986 6.8418C187.986 5.80664 188.24 4.98438 188.748 4.375C189.26 3.76562 189.945 3.46094 190.805 3.46094C191.609 3.46094 192.246 3.72656 192.715 4.25781C193.184 4.78516 193.418 5.48242 193.418 6.34961V6.96484H188.994C189.014 7.71875 189.203 8.29102 189.562 8.68164C189.926 9.07227 190.436 9.26758 191.092 9.26758C191.783 9.26758 192.467 9.12305 193.143 8.83398V9.70117C192.799 9.84961 192.473 9.95508 192.164 10.0176C191.859 10.084 191.49 10.1172 191.057 10.1172ZM190.793 4.27539C190.277 4.27539 189.865 4.44336 189.557 4.7793C189.252 5.11523 189.072 5.58008 189.018 6.17383H192.375C192.375 5.56055 192.238 5.0918 191.965 4.76758C191.691 4.43945 191.301 4.27539 190.793 4.27539ZM199.453 9.13867H199.4C198.951 9.79102 198.279 10.1172 197.385 10.1172C196.545 10.1172 195.891 9.83008 195.422 9.25586C194.957 8.68164 194.725 7.86523 194.725 6.80664C194.725 5.74805 194.959 4.92578 195.428 4.33984C195.896 3.75391 196.549 3.46094 197.385 3.46094C198.256 3.46094 198.924 3.77734 199.389 4.41016H199.465L199.424 3.94727L199.4 3.49609V0.882812H200.373V10H199.582L199.453 9.13867ZM197.508 9.30273C198.172 9.30273 198.652 9.12305 198.949 8.76367C199.25 8.40039 199.4 7.81641 199.4 7.01172V6.80664C199.4 5.89648 199.248 5.24805 198.943 4.86133C198.643 4.4707 198.16 4.27539 197.496 4.27539C196.926 4.27539 196.488 4.49805 196.184 4.94336C195.883 5.38477 195.732 6.00977 195.732 6.81836C195.732 7.63867 195.883 8.25781 196.184 8.67578C196.484 9.09375 196.926 9.30273 197.508 9.30273Z" fill="#787878"/>
</svg>
